<svg xmlns="http://www.w3.org/2000/svg" version="1.1" xmlns:xlink="http://www.w3.org/1999/xlink" xmlns:svgjs="http://svgjs.dev/svgjs" width="2000" height="2242" viewBox="0 0 2000 2242"><g transform="matrix(1,0,0,1,-3.1146791277258217,0)"><svg viewBox="0 0 321 360" data-background-color="#000000" preserveAspectRatio="xMidYMid meet" height="2242" width="2000" xmlns="http://www.w3.org/2000/svg" xmlns:xlink="http://www.w3.org/1999/xlink"><g id="tight-bounds" transform="matrix(1,0,0,1,0.499953000000005,0)"><svg viewBox="0 0 320 360" height="360" width="320"><rect width="320.000141" height="360" fill="url(#5d685f12-a2e0-40b2-baca-1a964e75513f)" mask="url(#47d5a814-8aef-45db-8aee-c7d82be5e439)" data-fill-palette-color="tertiary"></rect><g><svg></svg></g><g><svg viewBox="0 0 320 360" height="360" width="320"><g><path transform="translate(-74.99272,-51.79039) scale(4.65793,4.65793)" d="M20.6 59.9l0.8 1-0.4-1.3c-0.1-0.6-0.8 0.1-0.4 0.3M21.5 59.3c0.3 0.5 0.6 1 0.6 1.5 0 0.7 0.6 1 1.1 1.2-0.7-0.8-1.1-3-1.7-2.7M59.9 16.9c1.7 0 3.3-0.2 5.1 0.2 4.4 1.1 8.1 3.3 10.6 6.4l7 11.2c0.3 2.8 0.9 5.9 0.8 9.3 0.7 0 0.6-1 1.4-1.2-0.8 2-1.2 4.5-1.4 7.4-0.5-1.6 0-4 0.1-5.3-0.7 1.1-1.1 0.3-1.1-0.2 0.1-0.8-0.3-0.7-0.6-1-1.1-1-1.8-2.1-2.6-3.8 0.5-1.3 0.6-3.2-1-4.2-0.5-0.3-1.1-0.8-1.4-1.6-0.4-1.1-1.1-2.4-0.9-4.1 0.1-0.5-1.5 1.1-2.4 0.4-3.9-2.7-7.8-5.8-12.5-8.4-2.5 0-4.3-0.9-5.2-2-0.8-1-0.2-2.3 1-2.4 0.7 0 1.5-0.2 2.1 0.2 0.1-0.4 0.5-0.9 1-0.9M50 14.6l0.2 0.1c1 0.2 1.5 1.6 2.6 1.1 0 0.7 0.1 1.4-0.1 1.9-0.3 0.8-1.2 0.8-1.9 0.8-6.7-0.4-10.6 2.4-14.7 4.8-1.1 0.7-2.3 1.2-3.2 2.1-4.3 4-9 7.7-10.1 15.1l-0.9 8.2c-0.1 0.9-1.1 1.8-0.9 2.9l0.7 4.9c-0.7-0.7-1.1 0.2-0.9 0.6 0.1 0.3 0.5 1.3 1.1 0.4 0.8 1.5 1.6 4.4 2.7 5.7 3.4 4 7.8 7.6 11.4 11.2 0.9-0.2 1.6-0.2 1.8-0.8 0.3 0.6-0.3 1.2-0.8 1.3 1.6 1 3.4 1.9 5.8 2.1 3.1 0.2 6 0.7 8.7 1.4 1.4-0.4 2.8-0.6 4.3-0.7 0.5 0 0.8-0.8 1.4-1l0.1-1c0.6 0.9 0.5-0.3 0.1-0.9 0.7 0.6 0.9 1.1 1.2 1.5 0-0.3 0.8-1.4 0.8-0.1l0.2-1.3c0.3-0.2 0.4 1.1 0.7 0.2 0.3-0.9 0.9-0.2 1.5-0.5-0.2 0.4-0.1 1.2 0.6 0.7l0.8-0.7c0.5 1.2 1.3 0.7 1.7 0.5 4.4-2.8 8.8-6.1 13-9.4l-0.1 1.3 0.5-1.6c0.5 0.5 0.9 0.1 1.1-0.2 0.6-1 1.4-2 2.7-2.9-1.6 4.3-3.5 7.7-5.9 10.5l-1 1.2c0 0.7-0.2 1.6-1 1.7-0.4 0.1-1.2-0.2-1.8 0.4-0.3 0.4 0.7 1.2-0.1 0.6-0.7-0.5-1.4 0-2.2 0.2-0.6 0.2 0.4 0.8 0.6 1.2 0.2 0.4 0.4 0.8 0.3 1.3l-1.1-1.2c-1.3 0.7-2.1 2-3.2 3-0.5 0.4-0.3 1.1-0.3 1.7-0.7 0-1.5-0.2-1.9 0.2-0.3 0.4-0.2 1-0.2 1.6-1-0.1-1.1-1.6-2-1.3-0.9 0.2-1.9 0.3-2.7 0.8 0.6 1.2-1 0.5-0.8 0.7-1.5-0.9-2.8-1.6-4.4-1-3.4-1.1-7.6-0.6-10.7-0.2 0-0.5 0.1-1-0.1-1.1-0.2 0.5-0.8 0.3-0.7 0.3-1.9-1.3-3.8-2.1-5.8-3.2-1.8 0.2-3.5-0.7-4-1.2-1.4-1.3-3-0.6-4.3-0.9-2.8-0.7-3.8-3.6-4.1-5.6-0.2-1-1-1.4-1.3-1.3-1.3-4.2-3.3-8-4.9-11.9-0.4-1-0.3-2-0.3-3.1 0.5 0.2 1 0.1 0.9-0.6-0.5-3.3-1.7-5.8-3-8.2 0.7-3.4 0.8-7.4 2.4-10.4 1.4-2.7 4-4.1 5.8-6.4 0.6-0.8 0.6-1.9 1.2-2.6 2-2 4-4.1 6.2-5.9 1-0.8 2.2 0 3.7-0.3 0.5-1.8 2.5-3.4 4.4-2.9 0.8 0.2 2.4-1.9 2.9-2.1 0.8-0.3 0.4 0.8 0.4 1.5 1.9-1.5 4.5-2.3 6.9-3.2" fill="url(#5d685f12-a2e0-40b2-baca-1a964e75513f)" fill-rule="nonzero" stroke="none" stroke-width="1" stroke-linecap="butt" stroke-linejoin="miter" stroke-miterlimit="10" stroke-dasharray="" stroke-dashoffset="0" font-family="none" font-weight="none" font-size="none" text-anchor="none" style="mix-blend-mode: normal" data-fill-palette-color="tertiary"></path></g><g transform="matrix(1,0,0,1,64,99.16233633172081)"><svg viewBox="0 0 192 161.67532733655838" height="161.67532733655838" width="192"><g><svg viewBox="0 0 192 161.67532733655838" height="161.67532733655838" width="192"><g><svg viewBox="0 0 192 161.67532733655838" height="161.67532733655838" width="192"><g transform="matrix(1,0,0,1,0,97.71955677677953)"><svg viewBox="0 0 192 63.95577055977885" height="63.95577055977885" width="192"><g id="textblocktransform"><svg viewBox="0 0 192 63.95577055977885" height="63.95577055977885" width="192" id="textblock"><g><svg viewBox="0 0 192 63.95577055977885" height="63.95577055977885" width="192"><g transform="matrix(1,0,0,1,0,0)"><svg width="192" viewBox="0.95 -34.64 105.98 35.3" height="63.95577055977885" data-palette-color="url(#73bb713c-ef73-4e1b-aec8-66f7beea5c14)"></svg></g></svg></g></svg></g></svg></g><g transform="matrix(1,0,0,1,42.65006866499125,0)"><svg viewBox="0 0 106.6998626700175 88.38687491361436" height="88.38687491361436" width="106.6998626700175"><g><svg xmlns="http://www.w3.org/2000/svg" xmlns:xlink="http://www.w3.org/1999/xlink" version="1.1" x="0" y="0" viewBox="25.642861326545177 29.901999958976525 50.50043197177338 41.83300008151635" enable-background="new 0 0 100 100" xml:space="preserve" height="88.38687491361436" width="106.6998626700175" class="icon-icon-0" data-fill-palette-color="accent" id="icon-0"></svg></g></svg></g><g></g></svg></g></svg></g></svg></g></svg></g><defs></defs><mask id="e707a722-780d-4765-b8ee-487fe912b4d1"><g id="SvgjsG3540"><svg viewBox="0 0 320 360" height="360" width="320"><g><svg></svg></g><g><svg viewBox="0 0 320 360" height="360" width="320"><g><path transform="translate(-74.99272,-51.79039) scale(4.65793,4.65793)" d="M20.6 59.9l0.8 1-0.4-1.3c-0.1-0.6-0.8 0.1-0.4 0.3M21.5 59.3c0.3 0.5 0.6 1 0.6 1.5 0 0.7 0.6 1 1.1 1.2-0.7-0.8-1.1-3-1.7-2.7M59.9 16.9c1.7 0 3.3-0.2 5.1 0.2 4.4 1.1 8.1 3.3 10.6 6.4l7 11.2c0.3 2.8 0.9 5.9 0.8 9.3 0.7 0 0.6-1 1.4-1.2-0.8 2-1.2 4.5-1.4 7.4-0.5-1.6 0-4 0.1-5.3-0.7 1.1-1.1 0.3-1.1-0.2 0.1-0.8-0.3-0.7-0.6-1-1.1-1-1.8-2.1-2.6-3.8 0.5-1.3 0.6-3.2-1-4.2-0.5-0.3-1.1-0.8-1.4-1.6-0.4-1.1-1.1-2.4-0.9-4.1 0.1-0.5-1.5 1.1-2.4 0.4-3.9-2.7-7.8-5.8-12.5-8.4-2.5 0-4.3-0.9-5.2-2-0.8-1-0.2-2.3 1-2.4 0.7 0 1.5-0.2 2.1 0.2 0.1-0.4 0.5-0.9 1-0.9M50 14.6l0.2 0.1c1 0.2 1.5 1.6 2.6 1.1 0 0.7 0.1 1.4-0.1 1.9-0.3 0.8-1.2 0.8-1.9 0.8-6.7-0.4-10.6 2.4-14.7 4.8-1.1 0.7-2.3 1.2-3.2 2.1-4.3 4-9 7.7-10.1 15.1l-0.9 8.2c-0.1 0.9-1.1 1.8-0.9 2.9l0.7 4.9c-0.7-0.7-1.1 0.2-0.9 0.6 0.1 0.3 0.5 1.3 1.1 0.4 0.8 1.5 1.6 4.4 2.7 5.7 3.4 4 7.8 7.6 11.4 11.2 0.9-0.2 1.6-0.2 1.8-0.8 0.3 0.6-0.3 1.2-0.8 1.3 1.6 1 3.4 1.9 5.8 2.1 3.1 0.2 6 0.7 8.7 1.4 1.4-0.4 2.8-0.6 4.3-0.7 0.5 0 0.8-0.8 1.4-1l0.1-1c0.6 0.9 0.5-0.3 0.1-0.9 0.7 0.6 0.9 1.1 1.2 1.5 0-0.3 0.8-1.4 0.8-0.1l0.2-1.3c0.3-0.2 0.4 1.1 0.7 0.2 0.3-0.9 0.9-0.2 1.5-0.5-0.2 0.4-0.1 1.2 0.6 0.7l0.8-0.7c0.5 1.2 1.3 0.7 1.7 0.5 4.4-2.8 8.8-6.1 13-9.4l-0.1 1.3 0.5-1.6c0.5 0.5 0.9 0.1 1.1-0.2 0.6-1 1.4-2 2.7-2.9-1.6 4.3-3.5 7.7-5.9 10.5l-1 1.2c0 0.7-0.2 1.6-1 1.7-0.4 0.1-1.2-0.2-1.8 0.4-0.3 0.4 0.7 1.2-0.1 0.6-0.7-0.5-1.4 0-2.2 0.2-0.6 0.2 0.4 0.8 0.6 1.2 0.2 0.4 0.4 0.8 0.3 1.3l-1.1-1.2c-1.3 0.7-2.1 2-3.2 3-0.5 0.4-0.3 1.1-0.3 1.7-0.7 0-1.5-0.2-1.9 0.2-0.3 0.4-0.2 1-0.2 1.6-1-0.1-1.1-1.6-2-1.3-0.9 0.2-1.9 0.3-2.7 0.8 0.6 1.2-1 0.5-0.8 0.7-1.5-0.9-2.8-1.6-4.4-1-3.4-1.1-7.6-0.6-10.7-0.2 0-0.5 0.1-1-0.1-1.1-0.2 0.5-0.8 0.3-0.7 0.3-1.9-1.3-3.8-2.1-5.8-3.2-1.8 0.2-3.5-0.7-4-1.2-1.4-1.3-3-0.6-4.3-0.9-2.8-0.7-3.8-3.6-4.1-5.6-0.2-1-1-1.4-1.3-1.3-1.3-4.2-3.3-8-4.9-11.9-0.4-1-0.3-2-0.3-3.1 0.5 0.2 1 0.1 0.9-0.6-0.5-3.3-1.7-5.8-3-8.2 0.7-3.4 0.8-7.4 2.4-10.4 1.4-2.7 4-4.1 5.8-6.4 0.6-0.8 0.6-1.9 1.2-2.6 2-2 4-4.1 6.2-5.9 1-0.8 2.2 0 3.7-0.3 0.5-1.8 2.5-3.4 4.4-2.9 0.8 0.2 2.4-1.9 2.9-2.1 0.8-0.3 0.4 0.8 0.4 1.5 1.9-1.5 4.5-2.3 6.9-3.2" fill="black" fill-rule="nonzero" stroke="none" stroke-width="1" stroke-linecap="butt" stroke-linejoin="miter" stroke-miterlimit="10" stroke-dasharray="" stroke-dashoffset="0" font-family="none" font-weight="none" font-size="none" text-anchor="none" style="mix-blend-mode: normal"></path></g><g transform="matrix(1,0,0,1,64,99.16233633172081)"><svg viewBox="0 0 192 161.67532733655838" height="161.67532733655838" width="192"><g><svg viewBox="0 0 192 161.67532733655838" height="161.67532733655838" width="192"><g><svg viewBox="0 0 192 161.67532733655838" height="161.67532733655838" width="192"><g transform="matrix(1,0,0,1,0,97.71955677677953)"><svg viewBox="0 0 192 63.95577055977885" height="63.95577055977885" width="192"><g id="SvgjsG3539"><svg viewBox="0 0 192 63.95577055977885" height="63.95577055977885" width="192" id="SvgjsSvg3538"><g><svg viewBox="0 0 192 63.95577055977885" height="63.95577055977885" width="192"><g transform="matrix(1,0,0,1,0,0)"><svg width="192" viewBox="0.95 -34.64 105.98 35.3" height="63.95577055977885" data-palette-color="url(#73bb713c-ef73-4e1b-aec8-66f7beea5c14)"><path d="M3.47-7.43Q0.95-11.4 0.95-16.67 0.95-21.95 3.59-26.05 6.23-30.15 10.71-32.32 15.19-34.5 20.68-34.5L20.68-34.5Q25.39-34.5 29.59-33.03L29.59-33.03Q31.74-32.28 33.09-30.87 34.45-29.47 34.45-27.66 34.45-25.85 33.33-24.98 32.2-24.1 30.68-24.1 29.15-24.1 28.49-24.34L28.49-24.34Q28.22-28.13 26.29-29.99 24.37-31.86 20.56-31.86L20.56-31.86Q14.14-31.86 10.34-28 6.54-24.15 6.54-17.94L6.54-17.94Q6.54-13.77 8.35-10.34 10.16-6.91 13.42-4.91 16.67-2.91 20.75-2.91L20.75-2.91Q23.49-2.91 25.63-3.54L25.63-3.54Q29.69-4.74 29.74-6.54L29.74-6.54Q29.76-7.2 29.76-8.15L29.76-8.15 29.76-11.06Q29.76-11.45 29.61-12.33 29.47-13.21 29.43-13.6 29.39-13.99 28.77-14.36 28.15-14.72 27.44-14.87L27.44-14.87Q25.54-15.26 25.54-15.84 25.54-16.43 25.79-16.83 26.05-17.24 26.6-17.48 27.15-17.72 27.69-17.88 28.22-18.04 29.13-18.12L29.13-18.12Q30.4-18.19 32.9-18.19 35.4-18.19 36.35-18.02L36.35-18.02Q38.65-17.58 38.65-15.89L38.65-15.89Q38.65-15.53 38.31-15.38 37.96-15.23 37.78-15.17 37.6-15.11 37.3-15.04L37.3-15.04Q35.28-14.55 34.88-13.67 34.47-12.79 34.5-10.57L34.5-10.57 34.57-3.76Q33.69-3.49 31.96-2.55 30.22-1.61 29.54-1.32L29.54-1.32Q24.85 0.66 19.71 0.66 14.58 0.66 10.28-1.4 5.98-3.47 3.47-7.43ZM47.73 0L47.73 0 45.19 0.02Q41.62 0.02 40.74-1.03L40.74-1.03Q40.38-1.49 40.38-2.1 40.38-2.71 40.83-2.94 41.28-3.17 42.05-3.28 42.82-3.39 43.11-3.52L43.11-3.52Q44.06-3.91 44.06-5.25L44.06-5.25 44.06-29.05Q44.06-30.83 42.21-31.03L42.21-31.03Q40.82-31.15 40.7-31.35L40.7-31.35Q40.38-31.79 40.38-32.26 40.38-32.74 40.56-33.11 40.74-33.47 41.17-33.68 41.6-33.89 41.99-34.02 42.38-34.16 43.09-34.2L43.09-34.2Q44.19-34.28 44.89-34.28L44.89-34.28 45.68-34.28 48.46-34.3Q51.88-34.3 52.71-33.25L52.71-33.25Q53.07-32.79 53.07-32.17 53.07-31.54 52.6-31.32 52.12-31.1 51.36-31.02 50.61-30.93 50.34-30.81L50.34-30.81Q49.39-30.42 49.39-29.03L49.39-29.03 49.39-16.63Q57.3-23.75 64.06-29.93L64.06-29.93Q64.57-30.42 64.57-30.69 64.57-30.96 64.24-31.08 63.91-31.2 63.5-31.23L63.5-31.23Q62.45-31.3 62.45-32.18L62.45-32.18Q62.45-33.23 62.95-33.56 63.45-33.89 63.78-34.02 64.11-34.16 64.77-34.2L64.77-34.2Q65.72-34.28 67.34-34.28 68.97-34.28 69.85-34.24 70.73-34.2 71.76-34.06 72.8-33.91 73.18-33.53 73.56-33.15 73.56-32.68 73.56-32.2 73.46-32.02 73.36-31.84 73.13-31.71 72.9-31.59 72.7-31.54L72.7-31.54Q72.41-31.45 71.56-31.23L71.56-31.23 69.16-30.52Q59.15-22 57.44-20.58L57.44-20.58 70.24-4.91Q71.63-3.42 74.14-3.17L74.14-3.17Q74.39-3.15 74.47-3.13 74.56-3.1 74.77-3.05 74.97-3 75.05-2.97 75.12-2.93 75.25-2.84 75.39-2.76 75.44-2.64L75.44-2.64Q75.58-2.32 75.58-1.84 75.58-1.37 75.17-0.92 74.75-0.46 73.97-0.29L73.97-0.29Q72.68 0.02 70.82 0.02L70.82 0.02Q66.04 0.02 66.04-0.98L66.04-0.98Q56.56-13.55 53.81-17.43L53.81-17.43 49.39-13.79 49.39-5.2Q49.39-3.37 51.24-3.22L51.24-3.22Q51.73-3.17 51.91-3.16 52.1-3.15 52.4-3.08 52.71-3 52.81-2.88L52.81-2.88Q53.07-2.54 53.07-2.1 53.07-1.66 52.96-1.35 52.85-1.05 52.6-0.84 52.34-0.63 52.1-0.49 51.85-0.34 51.4-0.26 50.95-0.17 50.63-0.11 50.31-0.05 49.74-0.02 49.17 0 48.85 0L48.85 0Q48.29 0 47.73 0ZM91.47-31.62L91.47-31.62Q88.5-31.62 86.81-30.83L86.81-30.83Q83.74-29.42 83.74-27.1L83.74-27.1Q83.74-25.85 84.44-25.12L84.44-25.12Q86.32-23.14 89.37-21.78L89.37-21.78Q91.21-20.97 94.68-19.7 98.16-18.43 99.38-17.87 100.61-17.31 102.11-16.36 103.61-15.41 104.58-14.38L104.58-14.38Q106.93-11.91 106.93-8.74L106.93-8.74Q106.93-6.47 105.7-4.64 104.46-2.81 102.41-1.71L102.41-1.71Q98.19 0.59 92.79 0.59L92.79 0.59Q85.52 0.59 80.9-1.95L80.9-1.95Q79.37-2.81 78.39-4.15 77.41-5.49 77.41-7.02 77.41-8.54 78.34-9.42 79.27-10.3 80.99-10.3 82.71-10.3 83.67-9.11 84.64-7.91 84.64-5.98L84.64-5.98Q84.64-5.22 84.49-4.35L84.49-4.35Q88.2-2.44 92.43-2.44L92.43-2.44Q96.16-2.44 98.8-3.56L98.8-3.56Q101.8-4.86 101.8-8.06L101.8-8.06Q101.8-11.4 95.11-13.96L95.11-13.96Q93.99-14.38 91.65-15.19L91.65-15.19Q86.86-16.85 84.44-18.12L84.44-18.12Q78.51-21.24 78.51-25.95L78.51-25.95Q78.51-28.17 79.71-29.91 80.9-31.64 82.91-32.64L82.91-32.64Q86.96-34.64 92.38-34.64L92.38-34.64Q98.75-34.64 102.68-32.52L102.68-32.52Q104.05-31.76 104.91-30.55 105.78-29.35 105.78-27.82 105.78-26.29 104.72-25.31 103.66-24.32 102.09-24.32 100.53-24.32 99.8-24.46L99.8-24.46Q99.48-28.76 97.8-30.19 96.11-31.62 91.47-31.62Z" opacity="1" transform="matrix(1,0,0,1,0,0)" fill="white" class="wordmark-text-0" id="SvgjsPath3537"></path></svg></g></svg></g></svg></g></svg></g><g transform="matrix(1,0,0,1,42.65006866499125,0)"><svg viewBox="0 0 106.6998626700175 88.38687491361436" height="88.38687491361436" width="106.6998626700175"><g><svg xmlns="http://www.w3.org/2000/svg" xmlns:xlink="http://www.w3.org/1999/xlink" version="1.1" x="0" y="0" viewBox="25.642861326545177 29.901999958976525 50.50043197177338 41.83300008151635" enable-background="new 0 0 100 100" xml:space="preserve" height="88.38687491361436" width="106.6998626700175" class="icon-icon-0" data-fill-palette-color="accent" id="SvgjsSvg3536"><g fill="black"><g fill="black"><path d="M50.643 69.817C50.325 69.817 50.025 69.665 49.836 69.408L44.586 62.241A1 1 0 0 1 44.58 61.068L49.83 53.734A1 1 0 0 1 50.643 53.316H50.654C50.981 53.32 51.285 53.483 51.469 53.752L56.469 61.085C56.703 61.428 56.7 61.88 56.463 62.221L51.463 69.388A1 1 0 0 1 50.654 69.816zM46.628 61.644L50.623 67.098 54.428 61.644 50.623 56.062z" fill="black"></path></g><path d="M76.116 70.503L69.266 41.619 72.839 31.227A1 1 0 0 0 71.893 29.902H30.893A1 1 0 0 0 29.968 31.282L34.085 41.293 31.742 49.426H33.823L36.104 41.512C36.166 41.295 36.154 41.063 36.068 40.855L32.386 31.902H70.492L67.281 41.243A1 1 0 0 0 67.254 41.799L73.879 69.735H27.972L32.962 52.416H30.88L25.682 70.458A1 1 0 0 0 26.643 71.735H75.143A1 1 0 0 0 76.116 70.503" fill="black"></path></g></svg></g></svg></g><g></g></svg></g></svg></g></svg></g></svg></g><defs><mask></mask></defs></svg><rect width="320" height="360" fill="black" stroke="none" visibility="hidden"></rect></g></mask><linearGradient x1="0" x2="1" y1="0.548" y2="0.55" id="73bb713c-ef73-4e1b-aec8-66f7beea5c14"><stop stop-color="#ff6cab" offset="0"></stop><stop stop-color="#7366ff" offset="1"></stop></linearGradient><rect width="320.000047" height="360" fill="url(#73bb713c-ef73-4e1b-aec8-66f7beea5c14)" mask="url(#e707a722-780d-4765-b8ee-487fe912b4d1)" data-fill-palette-color="primary"></rect><mask id="298b21f0-f640-4b34-8bbf-c0b7788fb69c"><g id="SvgjsG3559"><svg viewBox="0 0 320 360" height="360" width="320"><g><svg></svg></g><g><svg viewBox="0 0 320 360" height="360" width="320"><g><path transform="translate(-74.99272,-51.79039) scale(4.65793,4.65793)" d="M20.6 59.9l0.8 1-0.4-1.3c-0.1-0.6-0.8 0.1-0.4 0.3M21.5 59.3c0.3 0.5 0.6 1 0.6 1.5 0 0.7 0.6 1 1.1 1.2-0.7-0.8-1.1-3-1.7-2.7M59.9 16.9c1.7 0 3.3-0.2 5.1 0.2 4.4 1.1 8.1 3.3 10.6 6.4l7 11.2c0.3 2.8 0.9 5.9 0.8 9.3 0.7 0 0.6-1 1.4-1.2-0.8 2-1.2 4.5-1.4 7.4-0.5-1.6 0-4 0.1-5.3-0.7 1.1-1.1 0.3-1.1-0.2 0.1-0.8-0.3-0.7-0.6-1-1.1-1-1.8-2.1-2.6-3.8 0.5-1.3 0.6-3.2-1-4.2-0.5-0.3-1.1-0.8-1.4-1.6-0.4-1.1-1.1-2.4-0.9-4.1 0.1-0.5-1.5 1.1-2.4 0.4-3.9-2.7-7.8-5.8-12.5-8.4-2.5 0-4.3-0.9-5.2-2-0.8-1-0.2-2.3 1-2.4 0.7 0 1.5-0.2 2.1 0.2 0.1-0.4 0.5-0.9 1-0.9M50 14.6l0.2 0.1c1 0.2 1.5 1.6 2.6 1.1 0 0.7 0.1 1.4-0.1 1.9-0.3 0.8-1.2 0.8-1.9 0.8-6.7-0.4-10.6 2.4-14.7 4.8-1.1 0.7-2.3 1.2-3.2 2.1-4.3 4-9 7.7-10.1 15.1l-0.9 8.2c-0.1 0.9-1.1 1.8-0.9 2.9l0.7 4.9c-0.7-0.7-1.1 0.2-0.9 0.6 0.1 0.3 0.5 1.3 1.1 0.4 0.8 1.5 1.6 4.4 2.7 5.7 3.4 4 7.8 7.6 11.4 11.2 0.9-0.2 1.6-0.2 1.8-0.8 0.3 0.6-0.3 1.2-0.8 1.3 1.6 1 3.4 1.9 5.8 2.1 3.1 0.2 6 0.7 8.7 1.4 1.4-0.4 2.8-0.6 4.3-0.7 0.5 0 0.8-0.8 1.4-1l0.1-1c0.6 0.9 0.5-0.3 0.1-0.9 0.7 0.6 0.9 1.1 1.2 1.5 0-0.3 0.8-1.4 0.8-0.1l0.2-1.3c0.3-0.2 0.4 1.1 0.7 0.2 0.3-0.9 0.9-0.2 1.5-0.5-0.2 0.4-0.1 1.2 0.6 0.7l0.8-0.7c0.5 1.2 1.3 0.7 1.7 0.5 4.4-2.8 8.8-6.1 13-9.4l-0.1 1.3 0.5-1.6c0.5 0.5 0.9 0.1 1.1-0.2 0.6-1 1.4-2 2.7-2.9-1.6 4.3-3.5 7.7-5.9 10.5l-1 1.2c0 0.7-0.2 1.6-1 1.7-0.4 0.1-1.2-0.2-1.8 0.4-0.3 0.4 0.7 1.2-0.1 0.6-0.7-0.5-1.4 0-2.2 0.2-0.6 0.2 0.4 0.8 0.6 1.2 0.2 0.4 0.4 0.8 0.3 1.3l-1.1-1.2c-1.3 0.7-2.1 2-3.2 3-0.5 0.4-0.3 1.1-0.3 1.7-0.7 0-1.5-0.2-1.9 0.2-0.3 0.4-0.2 1-0.2 1.6-1-0.1-1.1-1.6-2-1.3-0.9 0.2-1.9 0.3-2.7 0.8 0.6 1.2-1 0.5-0.8 0.7-1.5-0.9-2.8-1.6-4.4-1-3.4-1.1-7.6-0.6-10.7-0.2 0-0.5 0.1-1-0.1-1.1-0.2 0.5-0.8 0.3-0.7 0.3-1.9-1.3-3.8-2.1-5.8-3.2-1.8 0.2-3.5-0.7-4-1.2-1.4-1.3-3-0.6-4.3-0.9-2.8-0.7-3.8-3.6-4.1-5.6-0.2-1-1-1.4-1.3-1.3-1.3-4.2-3.3-8-4.9-11.9-0.4-1-0.3-2-0.3-3.1 0.5 0.2 1 0.1 0.9-0.6-0.5-3.3-1.7-5.8-3-8.2 0.7-3.4 0.8-7.4 2.4-10.4 1.4-2.7 4-4.1 5.8-6.4 0.6-0.8 0.6-1.9 1.2-2.6 2-2 4-4.1 6.2-5.9 1-0.8 2.2 0 3.7-0.3 0.5-1.8 2.5-3.4 4.4-2.9 0.8 0.2 2.4-1.9 2.9-2.1 0.8-0.3 0.4 0.8 0.4 1.5 1.9-1.5 4.5-2.3 6.9-3.2" fill="black" fill-rule="nonzero" stroke="none" stroke-width="1" stroke-linecap="butt" stroke-linejoin="miter" stroke-miterlimit="10" stroke-dasharray="" stroke-dashoffset="0" font-family="none" font-weight="none" font-size="none" text-anchor="none" style="mix-blend-mode: normal"></path></g><g transform="matrix(1,0,0,1,64,99.16233633172081)"><svg viewBox="0 0 192 161.67532733655838" height="161.67532733655838" width="192"><g><svg viewBox="0 0 192 161.67532733655838" height="161.67532733655838" width="192"><g><svg viewBox="0 0 192 161.67532733655838" height="161.67532733655838" width="192"><g transform="matrix(1,0,0,1,0,97.71955677677953)"><svg viewBox="0 0 192 63.95577055977885" height="63.95577055977885" width="192"><g id="SvgjsG3558"><svg viewBox="0 0 192 63.95577055977885" height="63.95577055977885" width="192" id="SvgjsSvg3557"><g><svg viewBox="0 0 192 63.95577055977885" height="63.95577055977885" width="192"><g transform="matrix(1,0,0,1,0,0)"><svg width="192" viewBox="0.95 -34.64 105.98 35.3" height="63.95577055977885" data-palette-color="url(#73bb713c-ef73-4e1b-aec8-66f7beea5c14)"></svg></g></svg></g></svg></g></svg></g><g transform="matrix(1,0,0,1,42.65006866499125,0)"><svg viewBox="0 0 106.6998626700175 88.38687491361436" height="88.38687491361436" width="106.6998626700175"><g><svg xmlns="http://www.w3.org/2000/svg" xmlns:xlink="http://www.w3.org/1999/xlink" version="1.1" x="0" y="0" viewBox="25.642861326545177 29.901999958976525 50.50043197177338 41.83300008151635" enable-background="new 0 0 100 100" xml:space="preserve" height="88.38687491361436" width="106.6998626700175" class="icon-icon-0" data-fill-palette-color="accent" id="SvgjsSvg3556"><g fill="white"><g fill="white"><path d="M50.643 69.817C50.325 69.817 50.025 69.665 49.836 69.408L44.586 62.241A1 1 0 0 1 44.58 61.068L49.83 53.734A1 1 0 0 1 50.643 53.316H50.654C50.981 53.32 51.285 53.483 51.469 53.752L56.469 61.085C56.703 61.428 56.7 61.88 56.463 62.221L51.463 69.388A1 1 0 0 1 50.654 69.816zM46.628 61.644L50.623 67.098 54.428 61.644 50.623 56.062z" fill="white"></path></g><path d="M76.116 70.503L69.266 41.619 72.839 31.227A1 1 0 0 0 71.893 29.902H30.893A1 1 0 0 0 29.968 31.282L34.085 41.293 31.742 49.426H33.823L36.104 41.512C36.166 41.295 36.154 41.063 36.068 40.855L32.386 31.902H70.492L67.281 41.243A1 1 0 0 0 67.254 41.799L73.879 69.735H27.972L32.962 52.416H30.88L25.682 70.458A1 1 0 0 0 26.643 71.735H75.143A1 1 0 0 0 76.116 70.503" fill="white"></path></g></svg></g></svg></g><g></g></svg></g></svg></g></svg></g></svg></g><defs><mask></mask></defs><mask><g id="SvgjsG3555"><svg viewBox="0 0 320 360" height="360" width="320"><g><svg></svg></g><g><svg viewBox="0 0 320 360" height="360" width="320"><g><path transform="translate(-74.99272,-51.79039) scale(4.65793,4.65793)" d="M20.6 59.9l0.8 1-0.4-1.3c-0.1-0.6-0.8 0.1-0.4 0.3M21.5 59.3c0.3 0.5 0.6 1 0.6 1.5 0 0.7 0.6 1 1.1 1.2-0.7-0.8-1.1-3-1.7-2.7M59.9 16.9c1.7 0 3.3-0.2 5.1 0.2 4.4 1.1 8.1 3.3 10.6 6.4l7 11.2c0.3 2.8 0.9 5.9 0.8 9.3 0.7 0 0.6-1 1.4-1.2-0.8 2-1.2 4.5-1.4 7.4-0.5-1.6 0-4 0.1-5.3-0.7 1.1-1.1 0.3-1.1-0.2 0.1-0.8-0.3-0.7-0.6-1-1.1-1-1.8-2.1-2.6-3.8 0.5-1.3 0.6-3.2-1-4.2-0.5-0.3-1.1-0.8-1.4-1.6-0.4-1.1-1.1-2.4-0.9-4.1 0.1-0.5-1.5 1.1-2.4 0.4-3.9-2.7-7.8-5.8-12.5-8.4-2.5 0-4.3-0.9-5.2-2-0.8-1-0.2-2.3 1-2.4 0.7 0 1.5-0.2 2.1 0.2 0.1-0.4 0.5-0.9 1-0.9M50 14.6l0.2 0.1c1 0.2 1.5 1.6 2.6 1.1 0 0.7 0.1 1.4-0.1 1.9-0.3 0.8-1.2 0.8-1.9 0.8-6.7-0.4-10.6 2.4-14.7 4.8-1.1 0.7-2.3 1.2-3.2 2.1-4.3 4-9 7.7-10.1 15.1l-0.9 8.2c-0.1 0.9-1.1 1.8-0.9 2.9l0.7 4.9c-0.7-0.7-1.1 0.2-0.9 0.6 0.1 0.3 0.5 1.3 1.1 0.4 0.8 1.5 1.6 4.4 2.7 5.7 3.4 4 7.8 7.6 11.4 11.2 0.9-0.2 1.6-0.2 1.8-0.8 0.3 0.6-0.3 1.2-0.8 1.3 1.6 1 3.4 1.9 5.8 2.1 3.1 0.2 6 0.7 8.7 1.4 1.4-0.4 2.8-0.6 4.3-0.7 0.5 0 0.8-0.8 1.4-1l0.1-1c0.6 0.9 0.5-0.3 0.1-0.9 0.7 0.6 0.9 1.1 1.2 1.5 0-0.3 0.8-1.4 0.8-0.1l0.2-1.3c0.3-0.2 0.4 1.1 0.7 0.2 0.3-0.9 0.9-0.2 1.5-0.5-0.2 0.4-0.1 1.2 0.6 0.7l0.8-0.7c0.5 1.2 1.3 0.7 1.7 0.5 4.4-2.8 8.8-6.1 13-9.4l-0.1 1.3 0.5-1.6c0.5 0.5 0.9 0.1 1.1-0.2 0.6-1 1.4-2 2.7-2.9-1.6 4.3-3.5 7.7-5.9 10.5l-1 1.2c0 0.7-0.2 1.6-1 1.7-0.4 0.1-1.2-0.2-1.8 0.4-0.3 0.4 0.7 1.2-0.1 0.6-0.7-0.5-1.4 0-2.2 0.2-0.6 0.2 0.4 0.8 0.6 1.2 0.2 0.4 0.4 0.8 0.3 1.3l-1.1-1.2c-1.3 0.7-2.1 2-3.2 3-0.5 0.4-0.3 1.1-0.3 1.7-0.7 0-1.5-0.2-1.9 0.2-0.3 0.4-0.2 1-0.2 1.6-1-0.1-1.1-1.6-2-1.3-0.9 0.2-1.9 0.3-2.7 0.8 0.6 1.2-1 0.5-0.8 0.7-1.5-0.9-2.8-1.6-4.4-1-3.4-1.1-7.6-0.6-10.7-0.2 0-0.5 0.1-1-0.1-1.1-0.2 0.5-0.8 0.3-0.7 0.3-1.9-1.3-3.8-2.1-5.8-3.2-1.8 0.2-3.5-0.7-4-1.2-1.4-1.3-3-0.6-4.3-0.9-2.8-0.7-3.8-3.6-4.1-5.6-0.2-1-1-1.4-1.3-1.3-1.3-4.2-3.3-8-4.9-11.9-0.4-1-0.3-2-0.3-3.1 0.5 0.2 1 0.1 0.9-0.6-0.5-3.3-1.7-5.8-3-8.2 0.7-3.4 0.8-7.4 2.4-10.4 1.4-2.7 4-4.1 5.8-6.4 0.6-0.8 0.6-1.9 1.2-2.6 2-2 4-4.1 6.2-5.9 1-0.8 2.2 0 3.7-0.3 0.5-1.8 2.5-3.4 4.4-2.9 0.8 0.2 2.4-1.9 2.9-2.1 0.8-0.3 0.4 0.8 0.4 1.5 1.9-1.5 4.5-2.3 6.9-3.2" fill="black" fill-rule="nonzero" stroke="none" stroke-width="1" stroke-linecap="butt" stroke-linejoin="miter" stroke-miterlimit="10" stroke-dasharray="" stroke-dashoffset="0" font-family="none" font-weight="none" font-size="none" text-anchor="none" style="mix-blend-mode: normal"></path></g><g transform="matrix(1,0,0,1,64,99.16233633172081)"><svg viewBox="0 0 192 161.67532733655838" height="161.67532733655838" width="192"><g><svg viewBox="0 0 192 161.67532733655838" height="161.67532733655838" width="192"><g><svg viewBox="0 0 192 161.67532733655838" height="161.67532733655838" width="192"><g transform="matrix(1,0,0,1,0,97.71955677677953)"><svg viewBox="0 0 192 63.95577055977885" height="63.95577055977885" width="192"><g id="SvgjsG3554"><svg viewBox="0 0 192 63.95577055977885" height="63.95577055977885" width="192" id="SvgjsSvg3553"><g><svg viewBox="0 0 192 63.95577055977885" height="63.95577055977885" width="192"><g transform="matrix(1,0,0,1,0,0)"><svg width="192" viewBox="0.95 -34.64 105.98 35.3" height="63.95577055977885" data-palette-color="url(#73bb713c-ef73-4e1b-aec8-66f7beea5c14)"><path d="M3.47-7.43Q0.95-11.4 0.95-16.67 0.95-21.95 3.59-26.05 6.23-30.15 10.71-32.32 15.19-34.5 20.68-34.5L20.68-34.5Q25.39-34.5 29.59-33.03L29.59-33.03Q31.74-32.28 33.09-30.87 34.45-29.47 34.45-27.66 34.45-25.85 33.33-24.98 32.2-24.1 30.68-24.1 29.15-24.1 28.49-24.34L28.49-24.34Q28.22-28.13 26.29-29.99 24.37-31.86 20.56-31.86L20.56-31.86Q14.14-31.86 10.34-28 6.54-24.15 6.54-17.94L6.54-17.94Q6.54-13.77 8.35-10.34 10.16-6.91 13.42-4.91 16.67-2.91 20.75-2.91L20.75-2.91Q23.49-2.91 25.63-3.54L25.63-3.54Q29.69-4.74 29.74-6.54L29.74-6.54Q29.76-7.2 29.76-8.15L29.76-8.15 29.76-11.06Q29.76-11.45 29.61-12.33 29.47-13.21 29.43-13.6 29.39-13.99 28.77-14.36 28.15-14.72 27.44-14.87L27.44-14.87Q25.54-15.26 25.54-15.84 25.54-16.43 25.79-16.83 26.05-17.24 26.6-17.48 27.15-17.72 27.69-17.88 28.22-18.04 29.13-18.12L29.13-18.12Q30.4-18.19 32.9-18.19 35.4-18.19 36.35-18.02L36.35-18.02Q38.65-17.58 38.65-15.89L38.65-15.89Q38.65-15.53 38.31-15.38 37.96-15.23 37.78-15.17 37.6-15.11 37.3-15.04L37.3-15.04Q35.28-14.55 34.88-13.67 34.47-12.79 34.5-10.57L34.5-10.57 34.57-3.76Q33.69-3.49 31.96-2.55 30.22-1.61 29.54-1.32L29.54-1.32Q24.85 0.66 19.71 0.66 14.58 0.66 10.28-1.4 5.98-3.47 3.47-7.43ZM47.73 0L47.73 0 45.19 0.02Q41.62 0.02 40.74-1.03L40.74-1.03Q40.38-1.49 40.38-2.1 40.38-2.71 40.83-2.94 41.28-3.17 42.05-3.28 42.82-3.39 43.11-3.52L43.11-3.52Q44.06-3.91 44.06-5.25L44.06-5.25 44.06-29.05Q44.06-30.83 42.21-31.03L42.21-31.03Q40.82-31.15 40.7-31.35L40.7-31.35Q40.38-31.79 40.38-32.26 40.38-32.74 40.56-33.11 40.74-33.47 41.17-33.68 41.6-33.89 41.99-34.02 42.38-34.16 43.09-34.2L43.09-34.2Q44.19-34.28 44.89-34.28L44.89-34.28 45.68-34.28 48.46-34.3Q51.88-34.3 52.71-33.25L52.71-33.25Q53.07-32.79 53.07-32.17 53.07-31.54 52.6-31.32 52.12-31.1 51.36-31.02 50.61-30.93 50.34-30.81L50.34-30.81Q49.39-30.42 49.39-29.03L49.39-29.03 49.39-16.63Q57.3-23.75 64.06-29.93L64.06-29.93Q64.57-30.42 64.57-30.69 64.57-30.96 64.24-31.08 63.91-31.2 63.5-31.23L63.5-31.23Q62.45-31.3 62.45-32.18L62.45-32.18Q62.45-33.23 62.95-33.56 63.45-33.89 63.78-34.02 64.11-34.16 64.77-34.2L64.77-34.2Q65.72-34.28 67.34-34.28 68.97-34.28 69.85-34.24 70.73-34.2 71.76-34.06 72.8-33.91 73.18-33.53 73.56-33.15 73.56-32.68 73.56-32.2 73.46-32.02 73.36-31.84 73.13-31.71 72.9-31.59 72.7-31.54L72.7-31.54Q72.41-31.45 71.56-31.23L71.56-31.23 69.16-30.52Q59.15-22 57.44-20.58L57.44-20.58 70.24-4.91Q71.63-3.42 74.14-3.17L74.14-3.17Q74.39-3.15 74.47-3.13 74.56-3.1 74.77-3.05 74.97-3 75.05-2.97 75.12-2.93 75.25-2.84 75.39-2.76 75.44-2.64L75.44-2.64Q75.58-2.32 75.58-1.84 75.58-1.37 75.17-0.92 74.75-0.46 73.97-0.29L73.97-0.29Q72.68 0.02 70.82 0.02L70.82 0.02Q66.04 0.02 66.04-0.98L66.04-0.98Q56.56-13.55 53.81-17.43L53.81-17.43 49.39-13.79 49.39-5.2Q49.39-3.37 51.24-3.22L51.24-3.22Q51.73-3.17 51.91-3.16 52.1-3.15 52.4-3.08 52.71-3 52.81-2.88L52.81-2.88Q53.07-2.54 53.07-2.1 53.07-1.66 52.96-1.35 52.85-1.05 52.6-0.84 52.34-0.63 52.1-0.49 51.85-0.34 51.4-0.26 50.95-0.17 50.63-0.11 50.31-0.05 49.74-0.02 49.17 0 48.85 0L48.85 0Q48.29 0 47.73 0ZM91.47-31.62L91.47-31.62Q88.5-31.62 86.81-30.83L86.81-30.83Q83.74-29.42 83.74-27.1L83.74-27.1Q83.74-25.85 84.44-25.12L84.44-25.12Q86.32-23.14 89.37-21.78L89.37-21.78Q91.21-20.97 94.68-19.7 98.16-18.43 99.38-17.87 100.61-17.31 102.11-16.36 103.61-15.41 104.58-14.38L104.58-14.38Q106.93-11.91 106.93-8.74L106.93-8.74Q106.93-6.47 105.7-4.64 104.46-2.81 102.41-1.71L102.41-1.71Q98.19 0.59 92.79 0.59L92.79 0.59Q85.52 0.59 80.9-1.95L80.9-1.95Q79.37-2.81 78.39-4.15 77.41-5.49 77.41-7.02 77.41-8.54 78.34-9.42 79.27-10.3 80.99-10.3 82.71-10.3 83.67-9.11 84.64-7.91 84.64-5.98L84.64-5.98Q84.64-5.22 84.49-4.35L84.49-4.35Q88.2-2.44 92.43-2.44L92.43-2.44Q96.16-2.44 98.8-3.56L98.8-3.56Q101.8-4.86 101.8-8.06L101.8-8.06Q101.8-11.4 95.11-13.96L95.11-13.96Q93.99-14.38 91.65-15.19L91.65-15.19Q86.86-16.85 84.44-18.12L84.44-18.12Q78.51-21.24 78.51-25.95L78.51-25.95Q78.51-28.17 79.71-29.91 80.9-31.64 82.91-32.64L82.91-32.64Q86.96-34.64 92.38-34.64L92.38-34.64Q98.75-34.64 102.68-32.52L102.68-32.52Q104.05-31.76 104.91-30.55 105.78-29.35 105.78-27.82 105.78-26.29 104.72-25.31 103.66-24.32 102.09-24.32 100.53-24.32 99.8-24.46L99.8-24.46Q99.48-28.76 97.8-30.19 96.11-31.62 91.47-31.62Z" opacity="1" transform="matrix(1,0,0,1,0,0)" fill="black" class="wordmark-text-0" id="SvgjsPath3552"></path></svg></g></svg></g></svg></g></svg></g><g transform="matrix(1,0,0,1,42.65006866499125,0)"><svg viewBox="0 0 106.6998626700175 88.38687491361436" height="88.38687491361436" width="106.6998626700175"><g><svg xmlns="http://www.w3.org/2000/svg" xmlns:xlink="http://www.w3.org/1999/xlink" version="1.1" x="0" y="0" viewBox="25.642861326545177 29.901999958976525 50.50043197177338 41.83300008151635" enable-background="new 0 0 100 100" xml:space="preserve" height="88.38687491361436" width="106.6998626700175" class="icon-icon-0" data-fill-palette-color="accent" id="SvgjsSvg3551"><g fill="black"><g fill="black"><path d="M50.643 69.817C50.325 69.817 50.025 69.665 49.836 69.408L44.586 62.241A1 1 0 0 1 44.58 61.068L49.83 53.734A1 1 0 0 1 50.643 53.316H50.654C50.981 53.32 51.285 53.483 51.469 53.752L56.469 61.085C56.703 61.428 56.7 61.88 56.463 62.221L51.463 69.388A1 1 0 0 1 50.654 69.816zM46.628 61.644L50.623 67.098 54.428 61.644 50.623 56.062z" fill="black"></path></g><path d="M76.116 70.503L69.266 41.619 72.839 31.227A1 1 0 0 0 71.893 29.902H30.893A1 1 0 0 0 29.968 31.282L34.085 41.293 31.742 49.426H33.823L36.104 41.512C36.166 41.295 36.154 41.063 36.068 40.855L32.386 31.902H70.492L67.281 41.243A1 1 0 0 0 67.254 41.799L73.879 69.735H27.972L32.962 52.416H30.88L25.682 70.458A1 1 0 0 0 26.643 71.735H75.143A1 1 0 0 0 76.116 70.503" fill="black"></path></g></svg></g></svg></g><g></g></svg></g></svg></g></svg></g></svg></g><defs><mask></mask></defs></svg><rect width="320" height="360" fill="black" stroke="none" visibility="hidden"></rect></g></mask></svg><rect width="320" height="360" fill="black" stroke="none" visibility="hidden"></rect></g></mask><linearGradient x1="0" x2="1" y1="0.548" y2="0.55" id="cad42cc4-abab-4620-a8b7-f18a34f19deb"><stop stop-color="#ff6cab" offset="0"></stop><stop stop-color="#7366ff" offset="1"></stop></linearGradient><rect width="320.000094" height="360" fill="url(#cad42cc4-abab-4620-a8b7-f18a34f19deb)" mask="url(#298b21f0-f640-4b34-8bbf-c0b7788fb69c)" data-fill-palette-color="accent"></rect><mask id="47d5a814-8aef-45db-8aee-c7d82be5e439"><g id="SvgjsG3577"><svg viewBox="0 0 320 360" height="360" width="320"><g><svg></svg></g><g><svg viewBox="0 0 320 360" height="360" width="320"><g><path transform="translate(-74.99272,-51.79039) scale(4.65793,4.65793)" d="M20.6 59.9l0.8 1-0.4-1.3c-0.1-0.6-0.8 0.1-0.4 0.3M21.5 59.3c0.3 0.5 0.6 1 0.6 1.5 0 0.7 0.6 1 1.1 1.2-0.7-0.8-1.1-3-1.7-2.7M59.9 16.9c1.7 0 3.3-0.2 5.1 0.2 4.4 1.1 8.1 3.3 10.6 6.4l7 11.2c0.3 2.8 0.9 5.9 0.8 9.3 0.7 0 0.6-1 1.4-1.2-0.8 2-1.2 4.5-1.4 7.4-0.5-1.6 0-4 0.1-5.3-0.7 1.1-1.1 0.3-1.1-0.2 0.1-0.8-0.3-0.7-0.6-1-1.1-1-1.8-2.1-2.6-3.8 0.5-1.3 0.6-3.2-1-4.2-0.5-0.3-1.1-0.8-1.4-1.6-0.4-1.1-1.1-2.4-0.9-4.1 0.1-0.5-1.5 1.1-2.4 0.4-3.9-2.7-7.8-5.8-12.5-8.4-2.5 0-4.3-0.9-5.2-2-0.8-1-0.2-2.3 1-2.4 0.7 0 1.5-0.2 2.1 0.2 0.1-0.4 0.5-0.9 1-0.9M50 14.6l0.2 0.1c1 0.2 1.5 1.6 2.6 1.1 0 0.7 0.1 1.4-0.1 1.9-0.3 0.8-1.2 0.8-1.9 0.8-6.7-0.4-10.6 2.4-14.7 4.8-1.1 0.7-2.3 1.2-3.2 2.1-4.3 4-9 7.7-10.1 15.1l-0.9 8.2c-0.1 0.9-1.1 1.8-0.9 2.9l0.7 4.9c-0.7-0.7-1.1 0.2-0.9 0.6 0.1 0.3 0.5 1.3 1.1 0.4 0.8 1.5 1.6 4.4 2.7 5.7 3.4 4 7.8 7.6 11.4 11.2 0.9-0.2 1.6-0.2 1.8-0.8 0.3 0.6-0.3 1.2-0.8 1.3 1.6 1 3.4 1.9 5.8 2.1 3.1 0.2 6 0.7 8.7 1.4 1.4-0.4 2.8-0.6 4.3-0.7 0.5 0 0.8-0.8 1.4-1l0.1-1c0.6 0.9 0.5-0.3 0.1-0.9 0.7 0.6 0.9 1.1 1.2 1.5 0-0.3 0.8-1.4 0.8-0.1l0.2-1.3c0.3-0.2 0.4 1.1 0.7 0.2 0.3-0.9 0.9-0.2 1.5-0.5-0.2 0.4-0.1 1.2 0.6 0.7l0.8-0.7c0.5 1.2 1.3 0.7 1.7 0.5 4.4-2.8 8.8-6.1 13-9.4l-0.1 1.3 0.5-1.6c0.5 0.5 0.9 0.1 1.1-0.2 0.6-1 1.4-2 2.7-2.9-1.6 4.3-3.5 7.7-5.9 10.5l-1 1.2c0 0.7-0.2 1.6-1 1.7-0.4 0.1-1.2-0.2-1.8 0.4-0.3 0.4 0.7 1.2-0.1 0.6-0.7-0.5-1.4 0-2.2 0.2-0.6 0.2 0.4 0.8 0.6 1.2 0.2 0.4 0.4 0.8 0.3 1.3l-1.1-1.2c-1.3 0.7-2.1 2-3.2 3-0.5 0.4-0.3 1.1-0.3 1.7-0.7 0-1.5-0.2-1.9 0.2-0.3 0.4-0.2 1-0.2 1.6-1-0.1-1.1-1.6-2-1.3-0.9 0.2-1.9 0.3-2.7 0.8 0.6 1.2-1 0.5-0.8 0.7-1.5-0.9-2.8-1.6-4.4-1-3.4-1.1-7.6-0.6-10.7-0.2 0-0.5 0.1-1-0.1-1.1-0.2 0.5-0.8 0.3-0.7 0.3-1.9-1.3-3.8-2.1-5.8-3.2-1.8 0.2-3.5-0.7-4-1.2-1.4-1.3-3-0.6-4.3-0.9-2.8-0.7-3.8-3.6-4.1-5.6-0.2-1-1-1.4-1.3-1.3-1.3-4.2-3.3-8-4.9-11.9-0.4-1-0.3-2-0.3-3.1 0.5 0.2 1 0.1 0.9-0.6-0.5-3.3-1.7-5.8-3-8.2 0.7-3.4 0.8-7.4 2.4-10.4 1.4-2.7 4-4.1 5.8-6.4 0.6-0.8 0.6-1.9 1.2-2.6 2-2 4-4.1 6.2-5.9 1-0.8 2.2 0 3.7-0.3 0.5-1.8 2.5-3.4 4.4-2.9 0.8 0.2 2.4-1.9 2.9-2.1 0.8-0.3 0.4 0.8 0.4 1.5 1.9-1.5 4.5-2.3 6.9-3.2" fill="white" fill-rule="nonzero" stroke="none" stroke-width="1" stroke-linecap="butt" stroke-linejoin="miter" stroke-miterlimit="10" stroke-dasharray="" stroke-dashoffset="0" font-family="none" font-weight="none" font-size="none" text-anchor="none" style="mix-blend-mode: normal"></path></g><g transform="matrix(1,0,0,1,64,99.16233633172081)"><svg viewBox="0 0 192 161.67532733655838" height="161.67532733655838" width="192"><g><svg viewBox="0 0 192 161.67532733655838" height="161.67532733655838" width="192"><g><svg viewBox="0 0 192 161.67532733655838" height="161.67532733655838" width="192"><g transform="matrix(1,0,0,1,0,97.71955677677953)"><svg viewBox="0 0 192 63.95577055977885" height="63.95577055977885" width="192"><g id="SvgjsG3576"><svg viewBox="0 0 192 63.95577055977885" height="63.95577055977885" width="192" id="SvgjsSvg3575"><g><svg viewBox="0 0 192 63.95577055977885" height="63.95577055977885" width="192"><g transform="matrix(1,0,0,1,0,0)"><svg width="192" viewBox="0.95 -34.64 105.98 35.3" height="63.95577055977885" data-palette-color="url(#73bb713c-ef73-4e1b-aec8-66f7beea5c14)"></svg></g></svg></g></svg></g></svg></g><g transform="matrix(1,0,0,1,42.65006866499125,0)"><svg viewBox="0 0 106.6998626700175 88.38687491361436" height="88.38687491361436" width="106.6998626700175"><g><svg xmlns="http://www.w3.org/2000/svg" xmlns:xlink="http://www.w3.org/1999/xlink" version="1.1" x="0" y="0" viewBox="25.642861326545177 29.901999958976525 50.50043197177338 41.83300008151635" enable-background="new 0 0 100 100" xml:space="preserve" height="88.38687491361436" width="106.6998626700175" class="icon-icon-0" data-fill-palette-color="accent" id="SvgjsSvg3574"></svg></g></svg></g><g></g></svg></g></svg></g></svg></g></svg></g><defs><mask></mask></defs><mask><g id="SvgjsG3573"><svg viewBox="0 0 320 360" height="360" width="320"><g><svg></svg></g><g><svg viewBox="0 0 320 360" height="360" width="320"><g><path transform="translate(-74.99272,-51.79039) scale(4.65793,4.65793)" d="M20.6 59.9l0.8 1-0.4-1.3c-0.1-0.6-0.8 0.1-0.4 0.3M21.5 59.3c0.3 0.5 0.6 1 0.6 1.5 0 0.7 0.6 1 1.1 1.2-0.7-0.8-1.1-3-1.7-2.7M59.9 16.9c1.7 0 3.3-0.2 5.1 0.2 4.4 1.1 8.1 3.3 10.6 6.4l7 11.2c0.3 2.8 0.9 5.9 0.8 9.3 0.7 0 0.6-1 1.4-1.2-0.8 2-1.2 4.5-1.4 7.4-0.5-1.6 0-4 0.1-5.3-0.7 1.1-1.1 0.3-1.1-0.2 0.1-0.8-0.3-0.7-0.6-1-1.1-1-1.8-2.1-2.6-3.8 0.5-1.3 0.6-3.2-1-4.2-0.5-0.3-1.1-0.8-1.4-1.6-0.4-1.1-1.1-2.4-0.9-4.1 0.1-0.5-1.5 1.1-2.4 0.4-3.9-2.7-7.8-5.8-12.5-8.4-2.5 0-4.3-0.9-5.2-2-0.8-1-0.2-2.3 1-2.4 0.7 0 1.5-0.2 2.1 0.2 0.1-0.4 0.5-0.9 1-0.9M50 14.6l0.2 0.1c1 0.2 1.5 1.6 2.6 1.1 0 0.7 0.1 1.4-0.1 1.9-0.3 0.8-1.2 0.8-1.9 0.8-6.7-0.4-10.6 2.4-14.7 4.8-1.1 0.7-2.3 1.2-3.2 2.1-4.3 4-9 7.7-10.1 15.1l-0.9 8.2c-0.1 0.9-1.1 1.8-0.9 2.9l0.7 4.9c-0.7-0.7-1.1 0.2-0.9 0.6 0.1 0.3 0.5 1.3 1.1 0.4 0.8 1.5 1.6 4.4 2.7 5.7 3.4 4 7.8 7.6 11.4 11.2 0.9-0.2 1.6-0.2 1.8-0.8 0.3 0.6-0.3 1.2-0.8 1.3 1.6 1 3.4 1.9 5.8 2.1 3.1 0.2 6 0.7 8.7 1.4 1.4-0.4 2.8-0.6 4.3-0.7 0.5 0 0.8-0.8 1.4-1l0.1-1c0.6 0.9 0.5-0.3 0.1-0.9 0.7 0.6 0.9 1.1 1.2 1.5 0-0.3 0.8-1.4 0.8-0.1l0.2-1.3c0.3-0.2 0.4 1.1 0.7 0.2 0.3-0.9 0.9-0.2 1.5-0.5-0.2 0.4-0.1 1.2 0.6 0.7l0.8-0.7c0.5 1.2 1.3 0.7 1.7 0.5 4.4-2.8 8.8-6.1 13-9.4l-0.1 1.3 0.5-1.6c0.5 0.5 0.9 0.1 1.1-0.2 0.6-1 1.4-2 2.7-2.9-1.6 4.3-3.5 7.7-5.9 10.5l-1 1.2c0 0.7-0.2 1.6-1 1.7-0.4 0.1-1.2-0.2-1.8 0.4-0.3 0.4 0.7 1.2-0.1 0.6-0.7-0.5-1.4 0-2.2 0.2-0.6 0.2 0.4 0.8 0.6 1.2 0.2 0.4 0.4 0.8 0.3 1.3l-1.1-1.2c-1.3 0.7-2.1 2-3.2 3-0.5 0.4-0.3 1.1-0.3 1.7-0.7 0-1.5-0.2-1.9 0.2-0.3 0.4-0.2 1-0.2 1.6-1-0.1-1.1-1.6-2-1.3-0.9 0.2-1.9 0.3-2.7 0.8 0.6 1.2-1 0.5-0.8 0.7-1.5-0.9-2.8-1.6-4.4-1-3.4-1.1-7.6-0.6-10.7-0.2 0-0.5 0.1-1-0.1-1.1-0.2 0.5-0.8 0.3-0.7 0.3-1.9-1.3-3.8-2.1-5.8-3.2-1.8 0.2-3.5-0.7-4-1.2-1.4-1.3-3-0.6-4.3-0.9-2.8-0.7-3.8-3.6-4.1-5.6-0.2-1-1-1.4-1.3-1.3-1.3-4.2-3.3-8-4.9-11.9-0.4-1-0.3-2-0.3-3.1 0.5 0.2 1 0.1 0.9-0.6-0.5-3.3-1.7-5.8-3-8.2 0.7-3.4 0.8-7.4 2.4-10.4 1.4-2.7 4-4.1 5.8-6.4 0.6-0.8 0.6-1.9 1.2-2.6 2-2 4-4.1 6.2-5.9 1-0.8 2.2 0 3.7-0.3 0.5-1.8 2.5-3.4 4.4-2.9 0.8 0.2 2.4-1.9 2.9-2.1 0.8-0.3 0.4 0.8 0.4 1.5 1.9-1.5 4.5-2.3 6.9-3.2" fill="black" fill-rule="nonzero" stroke="none" stroke-width="1" stroke-linecap="butt" stroke-linejoin="miter" stroke-miterlimit="10" stroke-dasharray="" stroke-dashoffset="0" font-family="none" font-weight="none" font-size="none" text-anchor="none" style="mix-blend-mode: normal"></path></g><g transform="matrix(1,0,0,1,64,99.16233633172081)"><svg viewBox="0 0 192 161.67532733655838" height="161.67532733655838" width="192"><g><svg viewBox="0 0 192 161.67532733655838" height="161.67532733655838" width="192"><g><svg viewBox="0 0 192 161.67532733655838" height="161.67532733655838" width="192"><g transform="matrix(1,0,0,1,0,97.71955677677953)"><svg viewBox="0 0 192 63.95577055977885" height="63.95577055977885" width="192"><g id="SvgjsG3572"><svg viewBox="0 0 192 63.95577055977885" height="63.95577055977885" width="192" id="SvgjsSvg3571"><g><svg viewBox="0 0 192 63.95577055977885" height="63.95577055977885" width="192"><g transform="matrix(1,0,0,1,0,0)"><svg width="192" viewBox="0.95 -34.64 105.98 35.3" height="63.95577055977885" data-palette-color="url(#73bb713c-ef73-4e1b-aec8-66f7beea5c14)"><path d="M3.47-7.43Q0.95-11.4 0.95-16.67 0.95-21.95 3.59-26.05 6.23-30.15 10.71-32.32 15.19-34.5 20.68-34.5L20.68-34.5Q25.39-34.5 29.59-33.03L29.59-33.03Q31.74-32.28 33.09-30.87 34.45-29.47 34.45-27.66 34.45-25.85 33.33-24.98 32.2-24.1 30.68-24.1 29.15-24.1 28.49-24.34L28.49-24.34Q28.22-28.13 26.29-29.99 24.37-31.86 20.56-31.86L20.56-31.86Q14.14-31.86 10.34-28 6.54-24.15 6.54-17.94L6.54-17.94Q6.54-13.77 8.35-10.34 10.16-6.91 13.42-4.91 16.67-2.91 20.75-2.91L20.75-2.91Q23.49-2.91 25.63-3.54L25.63-3.54Q29.69-4.74 29.74-6.54L29.74-6.54Q29.76-7.2 29.76-8.15L29.76-8.15 29.76-11.06Q29.76-11.45 29.61-12.33 29.47-13.21 29.43-13.6 29.39-13.99 28.77-14.36 28.15-14.72 27.44-14.87L27.44-14.87Q25.54-15.26 25.54-15.84 25.54-16.43 25.79-16.83 26.05-17.24 26.6-17.48 27.15-17.72 27.69-17.88 28.22-18.04 29.13-18.12L29.13-18.12Q30.4-18.19 32.9-18.19 35.4-18.19 36.35-18.02L36.35-18.02Q38.65-17.58 38.65-15.89L38.65-15.89Q38.65-15.53 38.31-15.38 37.96-15.23 37.78-15.17 37.6-15.11 37.3-15.04L37.3-15.04Q35.28-14.55 34.88-13.67 34.47-12.79 34.5-10.57L34.5-10.57 34.57-3.76Q33.69-3.49 31.96-2.55 30.22-1.61 29.54-1.32L29.54-1.32Q24.85 0.66 19.71 0.66 14.58 0.66 10.28-1.4 5.98-3.47 3.47-7.43ZM47.73 0L47.73 0 45.19 0.02Q41.62 0.02 40.74-1.03L40.74-1.03Q40.38-1.49 40.38-2.1 40.38-2.71 40.83-2.94 41.28-3.17 42.05-3.28 42.82-3.39 43.11-3.52L43.11-3.52Q44.06-3.91 44.06-5.25L44.06-5.25 44.06-29.05Q44.06-30.83 42.21-31.03L42.21-31.03Q40.82-31.15 40.7-31.35L40.7-31.35Q40.38-31.79 40.38-32.26 40.38-32.74 40.56-33.11 40.74-33.47 41.17-33.68 41.6-33.89 41.99-34.02 42.38-34.16 43.09-34.2L43.09-34.2Q44.19-34.28 44.89-34.28L44.89-34.28 45.68-34.28 48.46-34.3Q51.88-34.3 52.71-33.25L52.71-33.25Q53.07-32.79 53.07-32.17 53.07-31.54 52.6-31.32 52.12-31.1 51.36-31.02 50.61-30.93 50.34-30.81L50.34-30.81Q49.39-30.42 49.39-29.03L49.39-29.03 49.39-16.63Q57.3-23.75 64.06-29.93L64.06-29.93Q64.57-30.42 64.57-30.69 64.57-30.96 64.24-31.08 63.91-31.2 63.5-31.23L63.5-31.23Q62.45-31.3 62.45-32.18L62.45-32.18Q62.45-33.23 62.95-33.56 63.45-33.89 63.78-34.02 64.11-34.16 64.77-34.2L64.77-34.2Q65.72-34.28 67.34-34.28 68.97-34.28 69.85-34.24 70.73-34.2 71.76-34.06 72.8-33.91 73.18-33.53 73.56-33.15 73.56-32.68 73.56-32.2 73.46-32.02 73.36-31.84 73.13-31.71 72.9-31.59 72.7-31.54L72.7-31.54Q72.41-31.45 71.56-31.23L71.56-31.23 69.16-30.52Q59.15-22 57.44-20.58L57.44-20.58 70.24-4.91Q71.63-3.42 74.14-3.17L74.14-3.17Q74.39-3.15 74.47-3.13 74.56-3.1 74.77-3.05 74.97-3 75.05-2.97 75.12-2.93 75.25-2.84 75.39-2.76 75.44-2.64L75.44-2.64Q75.58-2.32 75.58-1.84 75.58-1.37 75.17-0.92 74.75-0.46 73.97-0.29L73.97-0.29Q72.68 0.02 70.82 0.02L70.82 0.02Q66.04 0.02 66.04-0.98L66.04-0.98Q56.56-13.55 53.81-17.43L53.81-17.43 49.39-13.79 49.39-5.2Q49.39-3.37 51.24-3.22L51.24-3.22Q51.73-3.17 51.91-3.16 52.1-3.15 52.4-3.08 52.71-3 52.81-2.88L52.81-2.88Q53.07-2.54 53.07-2.1 53.07-1.66 52.96-1.35 52.85-1.05 52.6-0.84 52.34-0.63 52.1-0.49 51.85-0.34 51.4-0.26 50.95-0.17 50.63-0.11 50.31-0.05 49.74-0.02 49.17 0 48.85 0L48.85 0Q48.29 0 47.73 0ZM91.47-31.62L91.47-31.62Q88.5-31.62 86.81-30.83L86.81-30.83Q83.74-29.42 83.74-27.1L83.74-27.1Q83.74-25.85 84.44-25.12L84.44-25.12Q86.32-23.14 89.37-21.78L89.37-21.78Q91.21-20.97 94.68-19.7 98.16-18.43 99.38-17.87 100.61-17.31 102.11-16.36 103.61-15.41 104.58-14.38L104.58-14.38Q106.93-11.91 106.93-8.74L106.93-8.74Q106.93-6.47 105.7-4.64 104.46-2.81 102.41-1.71L102.41-1.71Q98.19 0.59 92.79 0.59L92.79 0.59Q85.52 0.59 80.9-1.95L80.9-1.95Q79.37-2.81 78.39-4.15 77.41-5.49 77.41-7.02 77.41-8.54 78.34-9.42 79.27-10.3 80.99-10.3 82.71-10.3 83.67-9.11 84.64-7.91 84.64-5.98L84.64-5.98Q84.64-5.22 84.49-4.35L84.49-4.35Q88.2-2.44 92.43-2.44L92.43-2.44Q96.16-2.44 98.8-3.56L98.8-3.56Q101.8-4.86 101.8-8.06L101.8-8.06Q101.8-11.4 95.11-13.96L95.11-13.96Q93.99-14.38 91.65-15.19L91.65-15.19Q86.86-16.85 84.44-18.12L84.44-18.12Q78.51-21.24 78.51-25.95L78.51-25.95Q78.51-28.17 79.71-29.91 80.9-31.64 82.91-32.64L82.91-32.64Q86.96-34.64 92.38-34.64L92.38-34.64Q98.75-34.64 102.68-32.52L102.68-32.52Q104.05-31.76 104.91-30.55 105.78-29.35 105.78-27.82 105.78-26.29 104.72-25.31 103.66-24.32 102.09-24.32 100.53-24.32 99.8-24.46L99.8-24.46Q99.48-28.76 97.8-30.19 96.11-31.62 91.47-31.62Z" opacity="1" transform="matrix(1,0,0,1,0,0)" fill="black" class="wordmark-text-0" id="SvgjsPath3570"></path></svg></g></svg></g></svg></g></svg></g><g transform="matrix(1,0,0,1,42.65006866499125,0)"><svg viewBox="0 0 106.6998626700175 88.38687491361436" height="88.38687491361436" width="106.6998626700175"><g><svg xmlns="http://www.w3.org/2000/svg" xmlns:xlink="http://www.w3.org/1999/xlink" version="1.1" x="0" y="0" viewBox="25.642861326545177 29.901999958976525 50.50043197177338 41.83300008151635" enable-background="new 0 0 100 100" xml:space="preserve" height="88.38687491361436" width="106.6998626700175" class="icon-icon-0" data-fill-palette-color="accent" id="SvgjsSvg3569"><g fill="black"><g fill="black"><path d="M50.643 69.817C50.325 69.817 50.025 69.665 49.836 69.408L44.586 62.241A1 1 0 0 1 44.58 61.068L49.83 53.734A1 1 0 0 1 50.643 53.316H50.654C50.981 53.32 51.285 53.483 51.469 53.752L56.469 61.085C56.703 61.428 56.7 61.88 56.463 62.221L51.463 69.388A1 1 0 0 1 50.654 69.816zM46.628 61.644L50.623 67.098 54.428 61.644 50.623 56.062z" fill="black"></path></g><path d="M76.116 70.503L69.266 41.619 72.839 31.227A1 1 0 0 0 71.893 29.902H30.893A1 1 0 0 0 29.968 31.282L34.085 41.293 31.742 49.426H33.823L36.104 41.512C36.166 41.295 36.154 41.063 36.068 40.855L32.386 31.902H70.492L67.281 41.243A1 1 0 0 0 67.254 41.799L73.879 69.735H27.972L32.962 52.416H30.88L25.682 70.458A1 1 0 0 0 26.643 71.735H75.143A1 1 0 0 0 76.116 70.503" fill="black"></path></g></svg></g></svg></g><g></g></svg></g></svg></g></svg></g></svg></g><defs><mask></mask></defs></svg><rect width="320" height="360" fill="black" stroke="none" visibility="hidden"></rect></g></mask><mask><g id="SvgjsG3568"><svg viewBox="0 0 320 360" height="360" width="320"><g><svg></svg></g><g><svg viewBox="0 0 320 360" height="360" width="320"><g><path transform="translate(-74.99272,-51.79039) scale(4.65793,4.65793)" d="M20.6 59.9l0.8 1-0.4-1.3c-0.1-0.6-0.8 0.1-0.4 0.3M21.5 59.3c0.3 0.5 0.6 1 0.6 1.5 0 0.7 0.6 1 1.1 1.2-0.7-0.8-1.1-3-1.7-2.7M59.9 16.9c1.7 0 3.3-0.2 5.1 0.2 4.4 1.1 8.1 3.3 10.6 6.4l7 11.2c0.3 2.8 0.9 5.9 0.8 9.3 0.7 0 0.6-1 1.4-1.2-0.8 2-1.2 4.5-1.4 7.4-0.5-1.6 0-4 0.1-5.3-0.7 1.1-1.1 0.3-1.1-0.2 0.1-0.8-0.3-0.7-0.6-1-1.1-1-1.8-2.1-2.6-3.8 0.5-1.3 0.6-3.2-1-4.2-0.5-0.3-1.1-0.8-1.4-1.6-0.4-1.1-1.1-2.4-0.9-4.1 0.1-0.5-1.5 1.1-2.4 0.4-3.9-2.7-7.8-5.8-12.5-8.4-2.5 0-4.3-0.9-5.2-2-0.8-1-0.2-2.3 1-2.4 0.7 0 1.5-0.2 2.1 0.2 0.1-0.4 0.5-0.9 1-0.9M50 14.6l0.2 0.1c1 0.2 1.5 1.6 2.6 1.1 0 0.7 0.1 1.4-0.1 1.9-0.3 0.8-1.2 0.8-1.9 0.8-6.7-0.4-10.6 2.4-14.7 4.8-1.1 0.7-2.3 1.2-3.2 2.1-4.3 4-9 7.7-10.1 15.1l-0.9 8.2c-0.1 0.9-1.1 1.8-0.9 2.9l0.7 4.9c-0.7-0.7-1.1 0.2-0.9 0.6 0.1 0.3 0.5 1.3 1.1 0.4 0.8 1.5 1.6 4.4 2.7 5.7 3.4 4 7.8 7.6 11.4 11.2 0.9-0.2 1.6-0.2 1.8-0.8 0.3 0.6-0.3 1.2-0.8 1.3 1.6 1 3.4 1.9 5.8 2.1 3.1 0.2 6 0.7 8.7 1.4 1.4-0.4 2.8-0.6 4.3-0.7 0.5 0 0.8-0.8 1.4-1l0.1-1c0.6 0.9 0.5-0.3 0.1-0.9 0.7 0.6 0.9 1.1 1.2 1.5 0-0.3 0.8-1.4 0.8-0.1l0.2-1.3c0.3-0.2 0.4 1.1 0.7 0.2 0.3-0.9 0.9-0.2 1.5-0.5-0.2 0.4-0.1 1.2 0.6 0.7l0.8-0.7c0.5 1.2 1.3 0.7 1.7 0.5 4.4-2.8 8.8-6.1 13-9.4l-0.1 1.3 0.5-1.6c0.5 0.5 0.9 0.1 1.1-0.2 0.6-1 1.4-2 2.7-2.9-1.6 4.3-3.5 7.7-5.9 10.5l-1 1.2c0 0.7-0.2 1.6-1 1.7-0.4 0.1-1.2-0.2-1.8 0.4-0.3 0.4 0.7 1.2-0.1 0.6-0.7-0.5-1.4 0-2.2 0.2-0.6 0.2 0.4 0.8 0.6 1.2 0.2 0.4 0.4 0.8 0.3 1.3l-1.1-1.2c-1.3 0.7-2.1 2-3.2 3-0.5 0.4-0.3 1.1-0.3 1.7-0.7 0-1.5-0.2-1.9 0.2-0.3 0.4-0.2 1-0.2 1.6-1-0.1-1.1-1.6-2-1.3-0.9 0.2-1.9 0.3-2.7 0.8 0.6 1.2-1 0.5-0.8 0.7-1.5-0.9-2.8-1.6-4.4-1-3.4-1.1-7.6-0.6-10.7-0.2 0-0.5 0.1-1-0.1-1.1-0.2 0.5-0.8 0.3-0.7 0.3-1.9-1.3-3.8-2.1-5.8-3.2-1.8 0.2-3.5-0.7-4-1.2-1.4-1.3-3-0.6-4.3-0.9-2.8-0.7-3.8-3.6-4.1-5.6-0.2-1-1-1.4-1.3-1.3-1.3-4.2-3.3-8-4.9-11.9-0.4-1-0.3-2-0.3-3.1 0.5 0.2 1 0.1 0.9-0.6-0.5-3.3-1.7-5.8-3-8.2 0.7-3.4 0.8-7.4 2.4-10.4 1.4-2.7 4-4.1 5.8-6.4 0.6-0.8 0.6-1.9 1.2-2.6 2-2 4-4.1 6.2-5.9 1-0.8 2.2 0 3.7-0.3 0.5-1.8 2.5-3.4 4.4-2.9 0.8 0.2 2.4-1.9 2.9-2.1 0.8-0.3 0.4 0.8 0.4 1.5 1.9-1.5 4.5-2.3 6.9-3.2" fill="black" fill-rule="nonzero" stroke="none" stroke-width="1" stroke-linecap="butt" stroke-linejoin="miter" stroke-miterlimit="10" stroke-dasharray="" stroke-dashoffset="0" font-family="none" font-weight="none" font-size="none" text-anchor="none" style="mix-blend-mode: normal"></path></g><g transform="matrix(1,0,0,1,64,99.16233633172081)"><svg viewBox="0 0 192 161.67532733655838" height="161.67532733655838" width="192"><g><svg viewBox="0 0 192 161.67532733655838" height="161.67532733655838" width="192"><g><svg viewBox="0 0 192 161.67532733655838" height="161.67532733655838" width="192"><g transform="matrix(1,0,0,1,0,97.71955677677953)"><svg viewBox="0 0 192 63.95577055977885" height="63.95577055977885" width="192"><g id="SvgjsG3567"><svg viewBox="0 0 192 63.95577055977885" height="63.95577055977885" width="192" id="SvgjsSvg3566"><g><svg viewBox="0 0 192 63.95577055977885" height="63.95577055977885" width="192"><g transform="matrix(1,0,0,1,0,0)"><svg width="192" viewBox="0.95 -34.64 105.98 35.3" height="63.95577055977885" data-palette-color="url(#73bb713c-ef73-4e1b-aec8-66f7beea5c14)"></svg></g></svg></g></svg></g></svg></g><g transform="matrix(1,0,0,1,42.65006866499125,0)"><svg viewBox="0 0 106.6998626700175 88.38687491361436" height="88.38687491361436" width="106.6998626700175"><g><svg xmlns="http://www.w3.org/2000/svg" xmlns:xlink="http://www.w3.org/1999/xlink" version="1.1" x="0" y="0" viewBox="25.642861326545177 29.901999958976525 50.50043197177338 41.83300008151635" enable-background="new 0 0 100 100" xml:space="preserve" height="88.38687491361436" width="106.6998626700175" class="icon-icon-0" data-fill-palette-color="accent" id="SvgjsSvg3565"><g fill="black"><g fill="black"><path d="M50.643 69.817C50.325 69.817 50.025 69.665 49.836 69.408L44.586 62.241A1 1 0 0 1 44.58 61.068L49.83 53.734A1 1 0 0 1 50.643 53.316H50.654C50.981 53.32 51.285 53.483 51.469 53.752L56.469 61.085C56.703 61.428 56.7 61.88 56.463 62.221L51.463 69.388A1 1 0 0 1 50.654 69.816zM46.628 61.644L50.623 67.098 54.428 61.644 50.623 56.062z" fill="black"></path></g><path d="M76.116 70.503L69.266 41.619 72.839 31.227A1 1 0 0 0 71.893 29.902H30.893A1 1 0 0 0 29.968 31.282L34.085 41.293 31.742 49.426H33.823L36.104 41.512C36.166 41.295 36.154 41.063 36.068 40.855L32.386 31.902H70.492L67.281 41.243A1 1 0 0 0 67.254 41.799L73.879 69.735H27.972L32.962 52.416H30.88L25.682 70.458A1 1 0 0 0 26.643 71.735H75.143A1 1 0 0 0 76.116 70.503" fill="black"></path></g></svg></g></svg></g><g></g></svg></g></svg></g></svg></g></svg></g><defs><mask></mask></defs><mask><g id="SvgjsG3564"><svg viewBox="0 0 320 360" height="360" width="320"><g><svg></svg></g><g><svg viewBox="0 0 320 360" height="360" width="320"><g><path transform="translate(-74.99272,-51.79039) scale(4.65793,4.65793)" d="M20.6 59.9l0.8 1-0.4-1.3c-0.1-0.6-0.8 0.1-0.4 0.3M21.5 59.3c0.3 0.5 0.6 1 0.6 1.5 0 0.7 0.6 1 1.1 1.2-0.7-0.8-1.1-3-1.7-2.7M59.9 16.9c1.7 0 3.3-0.2 5.1 0.2 4.4 1.1 8.1 3.3 10.6 6.4l7 11.2c0.3 2.8 0.9 5.9 0.8 9.3 0.7 0 0.6-1 1.4-1.2-0.8 2-1.2 4.5-1.4 7.4-0.5-1.6 0-4 0.1-5.3-0.7 1.1-1.1 0.3-1.1-0.2 0.1-0.8-0.3-0.7-0.6-1-1.1-1-1.8-2.1-2.6-3.8 0.5-1.3 0.6-3.2-1-4.2-0.5-0.3-1.1-0.8-1.4-1.6-0.4-1.1-1.1-2.4-0.9-4.1 0.1-0.5-1.5 1.1-2.4 0.4-3.9-2.7-7.8-5.8-12.5-8.4-2.5 0-4.3-0.9-5.2-2-0.8-1-0.2-2.3 1-2.4 0.7 0 1.5-0.2 2.1 0.2 0.1-0.4 0.5-0.9 1-0.9M50 14.6l0.2 0.1c1 0.2 1.5 1.6 2.6 1.1 0 0.7 0.1 1.4-0.1 1.9-0.3 0.8-1.2 0.8-1.9 0.8-6.7-0.4-10.6 2.4-14.7 4.8-1.1 0.7-2.3 1.2-3.2 2.1-4.3 4-9 7.7-10.1 15.1l-0.9 8.2c-0.1 0.9-1.1 1.8-0.9 2.9l0.7 4.9c-0.7-0.7-1.1 0.2-0.9 0.6 0.1 0.3 0.5 1.3 1.1 0.4 0.8 1.5 1.6 4.4 2.7 5.7 3.4 4 7.8 7.6 11.4 11.2 0.9-0.2 1.6-0.2 1.8-0.8 0.3 0.6-0.3 1.2-0.8 1.3 1.6 1 3.4 1.9 5.8 2.1 3.1 0.2 6 0.7 8.7 1.4 1.4-0.4 2.8-0.6 4.3-0.7 0.5 0 0.8-0.8 1.4-1l0.1-1c0.6 0.9 0.5-0.3 0.1-0.9 0.7 0.6 0.9 1.1 1.2 1.5 0-0.3 0.8-1.4 0.8-0.1l0.2-1.3c0.3-0.2 0.4 1.1 0.7 0.2 0.3-0.9 0.9-0.2 1.5-0.5-0.2 0.4-0.1 1.2 0.6 0.7l0.8-0.7c0.5 1.2 1.3 0.7 1.7 0.5 4.4-2.8 8.8-6.1 13-9.4l-0.1 1.3 0.5-1.6c0.5 0.5 0.9 0.1 1.1-0.2 0.6-1 1.4-2 2.7-2.9-1.6 4.3-3.5 7.7-5.9 10.5l-1 1.2c0 0.7-0.2 1.6-1 1.7-0.4 0.1-1.2-0.2-1.8 0.4-0.3 0.4 0.7 1.2-0.1 0.6-0.7-0.5-1.4 0-2.2 0.2-0.6 0.2 0.4 0.8 0.6 1.2 0.2 0.4 0.4 0.8 0.3 1.3l-1.1-1.2c-1.3 0.7-2.1 2-3.2 3-0.5 0.4-0.3 1.1-0.3 1.7-0.7 0-1.5-0.2-1.9 0.2-0.3 0.4-0.2 1-0.2 1.6-1-0.1-1.1-1.6-2-1.3-0.9 0.2-1.9 0.3-2.7 0.8 0.6 1.2-1 0.5-0.8 0.7-1.5-0.9-2.8-1.6-4.4-1-3.4-1.1-7.6-0.6-10.7-0.2 0-0.5 0.1-1-0.1-1.1-0.2 0.5-0.8 0.3-0.7 0.3-1.9-1.3-3.8-2.1-5.8-3.2-1.8 0.2-3.5-0.7-4-1.2-1.4-1.3-3-0.6-4.3-0.9-2.8-0.7-3.8-3.6-4.1-5.6-0.2-1-1-1.4-1.3-1.3-1.3-4.2-3.3-8-4.9-11.9-0.4-1-0.3-2-0.3-3.1 0.5 0.2 1 0.1 0.9-0.6-0.5-3.3-1.7-5.8-3-8.2 0.7-3.4 0.8-7.4 2.4-10.4 1.4-2.7 4-4.1 5.8-6.4 0.6-0.8 0.6-1.9 1.2-2.6 2-2 4-4.1 6.2-5.9 1-0.8 2.2 0 3.7-0.3 0.5-1.8 2.5-3.4 4.4-2.9 0.8 0.2 2.4-1.9 2.9-2.1 0.8-0.3 0.4 0.8 0.4 1.5 1.9-1.5 4.5-2.3 6.9-3.2" fill="black" fill-rule="nonzero" stroke="none" stroke-width="1" stroke-linecap="butt" stroke-linejoin="miter" stroke-miterlimit="10" stroke-dasharray="" stroke-dashoffset="0" font-family="none" font-weight="none" font-size="none" text-anchor="none" style="mix-blend-mode: normal"></path></g><g transform="matrix(1,0,0,1,64,99.16233633172081)"><svg viewBox="0 0 192 161.67532733655838" height="161.67532733655838" width="192"><g><svg viewBox="0 0 192 161.67532733655838" height="161.67532733655838" width="192"><g><svg viewBox="0 0 192 161.67532733655838" height="161.67532733655838" width="192"><g transform="matrix(1,0,0,1,0,97.71955677677953)"><svg viewBox="0 0 192 63.95577055977885" height="63.95577055977885" width="192"><g id="SvgjsG3563"><svg viewBox="0 0 192 63.95577055977885" height="63.95577055977885" width="192" id="SvgjsSvg3562"><g><svg viewBox="0 0 192 63.95577055977885" height="63.95577055977885" width="192"><g transform="matrix(1,0,0,1,0,0)"><svg width="192" viewBox="0.95 -34.64 105.98 35.3" height="63.95577055977885" data-palette-color="url(#73bb713c-ef73-4e1b-aec8-66f7beea5c14)"><path d="M3.47-7.43Q0.95-11.4 0.95-16.67 0.95-21.95 3.59-26.05 6.23-30.15 10.71-32.32 15.19-34.5 20.68-34.5L20.68-34.5Q25.39-34.5 29.59-33.03L29.59-33.03Q31.74-32.28 33.09-30.87 34.45-29.47 34.45-27.66 34.45-25.85 33.33-24.98 32.2-24.1 30.68-24.1 29.15-24.1 28.49-24.34L28.49-24.34Q28.22-28.13 26.29-29.99 24.37-31.86 20.56-31.86L20.56-31.86Q14.14-31.86 10.34-28 6.54-24.15 6.54-17.94L6.54-17.94Q6.54-13.77 8.35-10.34 10.16-6.91 13.42-4.91 16.67-2.91 20.75-2.91L20.75-2.91Q23.49-2.91 25.63-3.54L25.63-3.54Q29.69-4.74 29.74-6.54L29.74-6.54Q29.76-7.2 29.76-8.15L29.76-8.15 29.76-11.06Q29.76-11.45 29.61-12.33 29.47-13.21 29.43-13.6 29.39-13.99 28.77-14.36 28.15-14.72 27.44-14.87L27.44-14.87Q25.54-15.26 25.54-15.84 25.54-16.43 25.79-16.83 26.05-17.24 26.6-17.48 27.15-17.72 27.69-17.88 28.22-18.04 29.13-18.12L29.13-18.12Q30.4-18.19 32.9-18.19 35.4-18.19 36.35-18.02L36.35-18.02Q38.65-17.58 38.65-15.89L38.65-15.89Q38.65-15.53 38.31-15.38 37.96-15.23 37.78-15.17 37.6-15.11 37.3-15.04L37.3-15.04Q35.28-14.55 34.88-13.67 34.47-12.79 34.5-10.57L34.5-10.57 34.57-3.76Q33.69-3.49 31.96-2.55 30.22-1.61 29.54-1.32L29.54-1.32Q24.85 0.66 19.71 0.66 14.58 0.66 10.28-1.4 5.98-3.47 3.47-7.43ZM47.73 0L47.73 0 45.19 0.02Q41.62 0.02 40.74-1.03L40.74-1.03Q40.38-1.49 40.38-2.1 40.38-2.71 40.83-2.94 41.28-3.17 42.05-3.28 42.82-3.39 43.11-3.52L43.11-3.52Q44.06-3.91 44.06-5.25L44.06-5.25 44.06-29.05Q44.06-30.83 42.21-31.03L42.21-31.03Q40.82-31.15 40.7-31.35L40.7-31.35Q40.38-31.79 40.38-32.26 40.38-32.74 40.56-33.11 40.74-33.47 41.17-33.68 41.6-33.89 41.99-34.02 42.38-34.16 43.09-34.2L43.09-34.2Q44.19-34.28 44.89-34.28L44.89-34.28 45.68-34.28 48.46-34.3Q51.88-34.3 52.71-33.25L52.71-33.25Q53.07-32.79 53.07-32.17 53.07-31.54 52.6-31.32 52.12-31.1 51.36-31.02 50.61-30.93 50.34-30.81L50.34-30.81Q49.39-30.42 49.39-29.03L49.39-29.03 49.39-16.63Q57.3-23.75 64.06-29.93L64.06-29.93Q64.57-30.42 64.57-30.69 64.57-30.96 64.24-31.08 63.91-31.2 63.5-31.23L63.5-31.23Q62.45-31.3 62.45-32.18L62.45-32.18Q62.45-33.23 62.95-33.56 63.45-33.89 63.78-34.02 64.11-34.16 64.77-34.2L64.77-34.2Q65.72-34.28 67.34-34.28 68.97-34.28 69.85-34.24 70.73-34.2 71.76-34.06 72.8-33.91 73.18-33.53 73.56-33.15 73.56-32.68 73.56-32.2 73.46-32.02 73.36-31.84 73.13-31.71 72.9-31.59 72.7-31.54L72.7-31.54Q72.41-31.45 71.56-31.23L71.56-31.23 69.16-30.52Q59.15-22 57.44-20.58L57.44-20.58 70.24-4.91Q71.63-3.42 74.14-3.17L74.14-3.17Q74.39-3.15 74.47-3.13 74.56-3.1 74.77-3.05 74.97-3 75.05-2.97 75.12-2.93 75.25-2.84 75.39-2.76 75.44-2.64L75.44-2.64Q75.58-2.32 75.58-1.84 75.58-1.37 75.17-0.92 74.75-0.46 73.97-0.29L73.97-0.29Q72.68 0.02 70.82 0.02L70.82 0.02Q66.04 0.02 66.04-0.98L66.04-0.98Q56.56-13.55 53.81-17.43L53.81-17.43 49.39-13.79 49.39-5.2Q49.39-3.37 51.24-3.22L51.24-3.22Q51.73-3.17 51.91-3.16 52.1-3.15 52.4-3.08 52.71-3 52.81-2.88L52.81-2.88Q53.07-2.54 53.07-2.1 53.07-1.66 52.96-1.35 52.85-1.05 52.6-0.84 52.34-0.63 52.1-0.49 51.85-0.34 51.4-0.26 50.95-0.17 50.63-0.11 50.31-0.05 49.74-0.02 49.17 0 48.85 0L48.85 0Q48.29 0 47.73 0ZM91.47-31.62L91.47-31.62Q88.5-31.62 86.81-30.83L86.81-30.83Q83.74-29.42 83.74-27.1L83.74-27.1Q83.74-25.85 84.44-25.12L84.44-25.12Q86.32-23.14 89.37-21.78L89.37-21.78Q91.21-20.97 94.68-19.7 98.16-18.43 99.38-17.87 100.61-17.31 102.11-16.36 103.61-15.41 104.58-14.38L104.58-14.38Q106.93-11.91 106.93-8.74L106.93-8.74Q106.93-6.47 105.7-4.64 104.46-2.81 102.41-1.71L102.41-1.71Q98.19 0.59 92.79 0.59L92.79 0.59Q85.52 0.59 80.9-1.95L80.9-1.95Q79.37-2.81 78.39-4.15 77.41-5.49 77.41-7.02 77.41-8.54 78.34-9.42 79.27-10.3 80.99-10.3 82.71-10.3 83.67-9.11 84.64-7.91 84.64-5.98L84.64-5.98Q84.64-5.22 84.49-4.35L84.49-4.35Q88.2-2.44 92.43-2.44L92.43-2.44Q96.16-2.44 98.8-3.56L98.8-3.56Q101.8-4.86 101.8-8.06L101.8-8.06Q101.8-11.4 95.11-13.96L95.11-13.96Q93.99-14.38 91.65-15.19L91.65-15.19Q86.86-16.85 84.44-18.12L84.44-18.12Q78.51-21.24 78.51-25.95L78.51-25.95Q78.51-28.17 79.71-29.91 80.9-31.64 82.91-32.64L82.91-32.64Q86.96-34.64 92.38-34.64L92.38-34.64Q98.75-34.64 102.68-32.52L102.68-32.52Q104.05-31.76 104.91-30.55 105.78-29.35 105.78-27.82 105.78-26.29 104.72-25.31 103.66-24.32 102.09-24.32 100.53-24.32 99.8-24.46L99.8-24.46Q99.48-28.76 97.8-30.19 96.11-31.62 91.47-31.62Z" opacity="1" transform="matrix(1,0,0,1,0,0)" fill="black" class="wordmark-text-0" id="SvgjsPath3561"></path></svg></g></svg></g></svg></g></svg></g><g transform="matrix(1,0,0,1,42.65006866499125,0)"><svg viewBox="0 0 106.6998626700175 88.38687491361436" height="88.38687491361436" width="106.6998626700175"><g><svg xmlns="http://www.w3.org/2000/svg" xmlns:xlink="http://www.w3.org/1999/xlink" version="1.1" x="0" y="0" viewBox="25.642861326545177 29.901999958976525 50.50043197177338 41.83300008151635" enable-background="new 0 0 100 100" xml:space="preserve" height="88.38687491361436" width="106.6998626700175" class="icon-icon-0" data-fill-palette-color="accent" id="SvgjsSvg3560"><g fill="black"><g fill="black"><path d="M50.643 69.817C50.325 69.817 50.025 69.665 49.836 69.408L44.586 62.241A1 1 0 0 1 44.58 61.068L49.83 53.734A1 1 0 0 1 50.643 53.316H50.654C50.981 53.32 51.285 53.483 51.469 53.752L56.469 61.085C56.703 61.428 56.7 61.88 56.463 62.221L51.463 69.388A1 1 0 0 1 50.654 69.816zM46.628 61.644L50.623 67.098 54.428 61.644 50.623 56.062z" fill="black"></path></g><path d="M76.116 70.503L69.266 41.619 72.839 31.227A1 1 0 0 0 71.893 29.902H30.893A1 1 0 0 0 29.968 31.282L34.085 41.293 31.742 49.426H33.823L36.104 41.512C36.166 41.295 36.154 41.063 36.068 40.855L32.386 31.902H70.492L67.281 41.243A1 1 0 0 0 67.254 41.799L73.879 69.735H27.972L32.962 52.416H30.88L25.682 70.458A1 1 0 0 0 26.643 71.735H75.143A1 1 0 0 0 76.116 70.503" fill="black"></path></g></svg></g></svg></g><g></g></svg></g></svg></g></svg></g></svg></g><defs><mask></mask></defs></svg><rect width="320" height="360" fill="black" stroke="none" visibility="hidden"></rect></g></mask></svg><rect width="320" height="360" fill="black" stroke="none" visibility="hidden"></rect></g></mask></svg><rect width="320" height="360" fill="black" stroke="none" visibility="hidden"></rect></g></mask><linearGradient x1="0" x2="1" y1="0.548" y2="0.55" id="5d685f12-a2e0-40b2-baca-1a964e75513f"><stop stop-color="#ff6cab" offset="0"></stop><stop stop-color="#7366ff" offset="1"></stop></linearGradient></svg><rect width="320" height="360" fill="none" stroke="none" visibility="hidden"></rect></g></svg></g></svg>